<svg width="28" height="28" viewBox="0 0 28 28" fill="none" xmlns="http://www.w3.org/2000/svg">
<path d="M9.36532 21.7328C9.36532 21.8422 9.23548 21.9297 9.07177 21.9297C8.88548 21.9461 8.75564 21.8586 8.75564 21.7328C8.75564 21.6234 8.88548 21.5359 9.04919 21.5359C9.21855 21.5195 9.36532 21.607 9.36532 21.7328ZM7.60968 21.4867C7.57016 21.5961 7.68306 21.7219 7.85242 21.7547C7.99919 21.8094 8.16855 21.7547 8.20242 21.6453C8.23629 21.5359 8.12903 21.4102 7.95968 21.3609C7.8129 21.3227 7.64919 21.3773 7.60968 21.4867ZM10.1048 21.3938C9.94113 21.432 9.82823 21.5359 9.84516 21.6617C9.8621 21.7711 10.0089 21.8422 10.1782 21.8039C10.3419 21.7656 10.4548 21.6617 10.4379 21.5523C10.421 21.4484 10.2685 21.3773 10.1048 21.3938ZM13.8194 0.4375C5.98952 0.4375 0 6.19609 0 13.7812C0 19.8461 3.94032 25.0359 9.56855 26.8625C10.2911 26.9883 10.5452 26.5562 10.5452 26.2008C10.5452 25.8617 10.5282 23.9914 10.5282 22.843C10.5282 22.843 6.57661 23.6633 5.74677 21.2133C5.74677 21.2133 5.10323 19.6219 4.17742 19.2117C4.17742 19.2117 2.88468 18.3531 4.26774 18.3695C4.26774 18.3695 5.67339 18.4789 6.44677 19.7805C7.68306 21.8914 9.75484 21.2844 10.5621 20.9234C10.6919 20.0484 11.0589 19.4414 11.4653 19.0805C8.30968 18.7414 5.12581 18.2984 5.12581 13.0375C5.12581 11.5336 5.55484 10.7789 6.45806 9.81641C6.31129 9.46094 5.83145 7.99531 6.60484 6.10313C7.78468 5.74766 10.5 7.57969 10.5 7.57969C11.629 7.27344 12.8427 7.11484 14.0452 7.11484C15.2476 7.11484 16.4613 7.27344 17.5903 7.57969C17.5903 7.57969 20.3056 5.74219 21.4855 6.10313C22.2589 8.00078 21.779 9.46094 21.6323 9.81641C22.5355 10.7844 23.0887 11.5391 23.0887 13.0375C23.0887 18.3148 19.7637 18.7359 16.6081 19.0805C17.1274 19.5125 17.5677 20.3328 17.5677 21.618C17.5677 23.4609 17.5508 25.7414 17.5508 26.1898C17.5508 26.5453 17.8105 26.9773 18.5274 26.8516C24.1726 25.0359 28 19.8461 28 13.7812C28 6.19609 21.6492 0.4375 13.8194 0.4375ZM5.4871 19.2992C5.41371 19.3539 5.43064 19.4797 5.52661 19.5836C5.61694 19.6711 5.74677 19.7094 5.82016 19.6383C5.89355 19.5836 5.87661 19.4578 5.78064 19.3539C5.69032 19.2664 5.56048 19.2281 5.4871 19.2992ZM4.87742 18.8562C4.8379 18.9273 4.89435 19.0148 5.00726 19.0695C5.09758 19.1242 5.21048 19.1078 5.25 19.0312C5.28952 18.9602 5.23306 18.8727 5.12016 18.818C5.00726 18.7852 4.91694 18.8016 4.87742 18.8562ZM6.70645 20.8031C6.61613 20.8742 6.65 21.0383 6.77984 21.1422C6.90968 21.268 7.07339 21.2844 7.14677 21.1969C7.22016 21.1258 7.18629 20.9617 7.07339 20.8578C6.94919 20.732 6.77984 20.7156 6.70645 20.8031ZM6.0629 19.9992C5.97258 20.0539 5.97258 20.1961 6.0629 20.3219C6.15323 20.4477 6.30564 20.5023 6.37903 20.4477C6.46935 20.3766 6.46935 20.2344 6.37903 20.1086C6.3 19.9828 6.15323 19.9281 6.0629 19.9992Z" fill="white"/>
</svg>
