<svg width="28" height="28" viewBox="0 0 28 28" fill="none" xmlns="http://www.w3.org/2000/svg">
<path d="M26 1.75H1.99375C0.89375 1.75 0 2.54297 0 3.51641V24.4836C0 25.457 0.89375 26.25 1.99375 26.25H26C27.1 26.25 28 25.457 28 24.4836V3.51641C28 2.54297 27.1 1.75 26 1.75ZM8.4625 22.75H4.3125V11.0578H8.46875V22.75H8.4625ZM6.3875 9.46094C5.05625 9.46094 3.98125 8.51484 3.98125 7.35547C3.98125 6.19609 5.05625 5.25 6.3875 5.25C7.7125 5.25 8.79375 6.19609 8.79375 7.35547C8.79375 8.52031 7.71875 9.46094 6.3875 9.46094ZM24.0187 22.75H19.8687V17.0625C19.8687 15.7063 19.8375 13.9617 17.7125 13.9617C15.55 13.9617 15.2188 15.4383 15.2188 16.9641V22.75H11.0688V11.0578H15.05V12.6547H15.1062C15.6625 11.7359 17.0188 10.768 19.0375 10.768C23.2375 10.768 24.0187 13.1906 24.0187 16.3406V22.75Z" fill="white"/>
</svg>
